<svg xmlns="http://www.w3.org/2000/svg" xmlns:xlink="http://www.w3.org/1999/xlink" version="1.1" width="256" height="256" viewBox="0 0 256 256" xml:space="preserve">
<defs>
</defs>
<g style="stroke: none; stroke-width: 0; stroke-dasharray: none; stroke-linecap: butt; stroke-linejoin: miter; stroke-miterlimit: 10; fill: none; fill-rule: nonzero; opacity: 1;" transform="translate(1.4065934065934016 1.4065934065934016) scale(2.81 2.81)" >
	<path d="M 56.014 32.065 c 0.591 0.068 1.192 0.103 1.801 0.103 c 8.607 0 15.584 -6.977 15.584 -15.584 C 73.399 7.977 66.422 1 57.815 1 C 52.5 1 47.813 3.665 45 7.727 C 42.187 3.665 37.5 1 32.185 1 c -8.607 0 -15.584 6.977 -15.584 15.584 c 0 8.607 6.977 15.584 15.584 15.584 c 0.609 0 1.21 -0.035 1.801 -0.103" style="stroke: none; stroke-width: 1; stroke-dasharray: none; stroke-linecap: butt; stroke-linejoin: miter; stroke-miterlimit: 10; fill: rgb(255,161,122); fill-rule: nonzero; opacity: 1;" transform=" matrix(1 0 0 1 0 0) " stroke-linecap="round" />
	<polyline points="33.99,24.8 33.99,66.5 56.01,66.5 56.01,24.8 " style="stroke: none; stroke-width: 1; stroke-dasharray: none; stroke-linecap: butt; stroke-linejoin: miter; stroke-miterlimit: 10; fill: rgb(255,161,122); fill-rule: nonzero; opacity: 1;" transform="  matrix(1 0 0 1 0 0) "/>
	<path d="M 55.464 66.503 H 34.536 c -3.087 0 -5.589 2.502 -5.589 5.589 v 0.855 C 28.947 81.813 36.134 89 45 89 h 0 c 8.866 0 16.053 -7.187 16.053 -16.053 v -0.855 C 61.053 69.005 58.55 66.503 55.464 66.503 z" style="stroke: none; stroke-width: 1; stroke-dasharray: none; stroke-linecap: butt; stroke-linejoin: miter; stroke-miterlimit: 10; fill: rgb(236,85,105); fill-rule: nonzero; opacity: 1;" transform=" matrix(1 0 0 1 0 0) " stroke-linecap="round" />
	<path d="M 57.814 33.168 c -0.638 0 -1.282 -0.037 -1.915 -0.109 c -0.549 -0.063 -0.942 -0.559 -0.879 -1.108 c 0.063 -0.548 0.554 -0.938 1.107 -0.879 c 0.558 0.064 1.125 0.097 1.687 0.097 c 8.042 0 14.584 -6.542 14.584 -14.584 S 65.856 2 57.814 2 c -4.779 0 -9.263 2.354 -11.992 6.296 c -0.374 0.539 -1.271 0.539 -1.645 0 C 41.448 4.354 36.964 2 32.185 2 c -8.042 0 -14.584 6.542 -14.584 14.584 s 6.542 14.584 14.584 14.584 c 0.562 0 1.13 -0.032 1.687 -0.097 c 0.554 -0.06 1.045 0.331 1.108 0.879 c 0.063 0.549 -0.331 1.045 -0.879 1.108 c -0.633 0.073 -1.277 0.109 -1.916 0.109 c -9.145 0 -16.584 -7.439 -16.584 -16.584 S 23.041 0 32.185 0 C 37.165 0 41.861 2.246 45 6.068 C 48.139 2.246 52.835 0 57.814 0 c 9.145 0 16.584 7.439 16.584 16.584 S 66.959 33.168 57.814 33.168 z" style="stroke: none; stroke-width: 1; stroke-dasharray: none; stroke-linecap: butt; stroke-linejoin: miter; stroke-miterlimit: 10; fill: rgb(0,0,0); fill-rule: nonzero; opacity: 1;" transform=" matrix(1 0 0 1 0 0) " stroke-linecap="round" />
	<path d="M 56.015 67.503 H 33.986 c -0.552 0 -1 -0.447 -1 -1 v -41.7 c 0 -0.552 0.448 -1 1 -1 s 1 0.448 1 1 v 40.7 h 20.029 v -40.7 c 0 -0.552 0.447 -1 1 -1 s 1 0.448 1 1 v 41.7 C 57.015 67.056 56.567 67.503 56.015 67.503 z" style="stroke: none; stroke-width: 1; stroke-dasharray: none; stroke-linecap: butt; stroke-linejoin: miter; stroke-miterlimit: 10; fill: rgb(0,0,0); fill-rule: nonzero; opacity: 1;" transform=" matrix(1 0 0 1 0 0) " stroke-linecap="round" />
	<path d="M 45 90 c -9.403 0 -17.053 -7.649 -17.053 -17.053 v -0.855 c 0 -3.633 2.956 -6.589 6.589 -6.589 h 20.927 c 3.633 0 6.589 2.956 6.589 6.589 v 0.855 C 62.053 82.351 54.403 90 45 90 z M 34.537 67.503 c -2.531 0 -4.589 2.059 -4.589 4.589 v 0.855 C 29.947 81.247 36.7 88 45 88 c 8.3 0 15.053 -6.753 15.053 -15.053 v -0.855 c 0 -2.53 -2.059 -4.589 -4.589 -4.589 H 34.537 z" style="stroke: none; stroke-width: 1; stroke-dasharray: none; stroke-linecap: butt; stroke-linejoin: miter; stroke-miterlimit: 10; fill: rgb(0,0,0); fill-rule: nonzero; opacity: 1;" transform=" matrix(1 0 0 1 0 0) " stroke-linecap="round" />
	<path d="M 45 90 c -0.552 0 -1 -0.447 -1 -1 v -7.525 c 0 -0.553 0.448 -1 1 -1 s 1 0.447 1 1 V 89 C 46 89.553 45.552 90 45 90 z" style="stroke: none; stroke-width: 1; stroke-dasharray: none; stroke-linecap: butt; stroke-linejoin: miter; stroke-miterlimit: 10; fill: rgb(0,0,0); fill-rule: nonzero; opacity: 1;" transform=" matrix(1 0 0 1 0 0) " stroke-linecap="round" />
</g>
</svg>
